# AST/ASF file generated using VICON BodyLanguage
# -----------------------------------------------
:version 1.10
:name VICON
:units
  mass 1.0
  length 0.45
  angle deg
:documentation
   .ast/.asf automatically generated from VICON data using
   VICON BodyBuilder and BodyLanguage model FoxedUp or BRILLIANT.MOD
:root
   order TX TY TZ RX RY RZ
   axis XYZ
   position 0 0 0  
   orientation 0 0 0 
:bonedata
  begin
     id 1 
     name lhipjoint
     direction 0.528046 -0.759594 0.379717 
     length 2.39752 
     axis 0 0 0  XYZ
  end
  begin
     id 2 
     name lfemur
     direction 0.34202 -0.939693 0  
     length 7.31175  
     axis 0 0 20  XYZ
    dof rx ry rz
    limits (-160.0 20.0)
           (-70.0 70.0)
           (-60.0 70.0)
  end
  begin
     id 3 
     name ltibia
     direction 0.34202 -0.939693 0   
     length 7.52482   
     axis 0 0 20   XYZ
    dof rx
    limits (-10.0 170.0)
  end
  begin
     id 4 
     name lfoot
     direction 0.0675379 -0.185559 0.980309   
     length 2.00961   
     axis -90 7.62852e-016 20   XYZ
    dof rx rz
    limits (-45.0 90.0)
           (-70.0 20.0)
  end
  begin
     id 5 
     name ltoes
     direction 1.5352e-011 -4.22286e-011 1   
     length 1.01383   
     axis -90 7.62852e-016 20   XYZ
    dof rx
    limits (-90.0 20.0)
  end
  begin
     id 6 
     name rhipjoint
     direction -0.510274 -0.769251 0.384544   
     length 2.36742  
     axis 0 0 0  XYZ 
  end
  begin
     id 7 
     name rfemur
     direction -0.34202 -0.939693 0   
     length 7.45325   
     axis 0 0 -20   XYZ
    dof rx ry rz
    limits (-160.0 20.0)
           (-70.0 70.0)
           (-70.0 60.0)
  end
  begin
     id 8 
     name rtibia
     direction -0.34202 -0.939693 0   
     length 7.49587   
     axis 0 0 -20   XYZ
    dof rx
    limits (-10.0 170.0)
 end
 begin
     id 9 
     name rfoot
     direction -0.106475 -0.292536 0.950308   
     length 2.20898  
     axis -90 -7.62852e-016 -20   XYZ
    dof rx rz
    limits (-45.0 90.0)
           (-20.0 70.0)
  end
  begin
     id 10 
     name rtoes
     direction -1.53597e-011 -4.22023e-011 1   
     length 1.10065   
     axis -90 -7.62852e-016 -20   XYZ
    dof rx
    limits (-90.0 20.0)
  end
  begin
     id 11 
     name lowerback
     direction 0.0260024 0.998026 -0.0571652   
     length 2.11214   
     axis 0 0 0   XYZ
    dof rx ry rz
    limits (-20.0 45.0)
           (-30.0 30.0)
           (-30.0 30.0)
  end
  begin
     id 12 
     name upperback
     direction 0.0216202 0.999542 -0.0211766   
     length 2.11689   
     axis 0 0 0   XYZ
    dof rx ry rz
    limits (-20.0 45.0)
           (-30.0 30.0)
           (-30.0 30.0)
  end
  begin
     id 13 
     name thorax
     direction 0.00883312 0.999944 0.00589057   
     length 2.11821   
     axis 0 0 0   XYZ
    dof rx ry rz
    limits (-20.0 45.0)
           (-30.0 30.0)
           (-30.0 30.0)
  end
  begin
     id 14 
     name lowerneck
     direction -0.059386 0.994433 0.0870401   
     length 1.81176   
     axis 0 0 0   XYZ
    dof rx ry rz
    limits (-20.0 45.0)
           (-30.0 30.0)
           (-30.0 30.0)
  end
  begin
     id 15 
     name upperneck
     direction 0.0506457 0.97328 -0.223967   
     length 1.82382   
     axis 0 0 0   XYZ
    dof rx ry rz
    limits (-20.0 45.0)
           (-30.0 30.0)
           (-30.0 30.0)
  end
  begin
     id 16
     name head
     direction 0.0205902 0.996147 -0.0852487  
     length 1.84805  
     axis 0 0 0   XYZ
    dof rx ry rz
    limits (-20.0 45.0)
           (-30.0 30.0)
           (-30.0 30.0)
  end
  begin
     id 17 
     name lclavicle
     direction 0.949493 0.303881 -0.0782325  
     length 3.60584  
     axis 0 0 0   XYZ
    dof ry rz
    limits (-20.0 10.0)
           (0.0 20.0)
  end
  begin
     id 18 
     name lhumerus
     direction 1 -4.48965e-011 1.48782e-027   
     length 4.95681   
     axis 180 -30 -90   XYZ
    dof rx ry rz
    limits (-60.0 90.0)
           (-90.0 90.0)
           (-90.0 90.0)
  end
  begin
     id 19
     name lradius
     direction 1 -4.48952e-011 2.06528e-027   
     length 3.40915   
     axis 180 -30 -90   XYZ
    dof rx
    limits (-10.0 170.0)
  end
  begin
     id 20
     name lwrist
     direction 1 -4.48964e-011 1.28021e-027   
     length 1.70457   
     axis -1.61767e-015 90 90   XYZ
    dof ry
    limits (-180.0 0.0)
 end
  begin
     id 21 
     name lhand
     direction 1 -4.49094e-011 2.54887e-027   
     length 0.616403   
     axis -1.63363e-015 90 90   XYZ
    dof rx rz
    limits (-90.0 90.0)
           (-45.0 45.0)
  end
  begin
     id 22 
     name lfingers
     direction 1 -4.49002e-011 5.11407e-027   
     length 0.49696   
     axis -3.26723e-015 90 90   XYZ
    dof rx
    limits (0.0 90.0)
  end
  begin
     id 23
     name lthumb
     direction 0.707107 -6.34998e-011 0.707107   
     length 0.713539   
     axis -90 45 -2.25915e-014   XYZ
    dof rx rz
    limits (-45.0 45.0)
           (-45.0 45.0)
  end
  begin
     id 24 
     name rclavicle
     direction -0.937751 0.334612 -0.0930482   
     length 3.46287  
     axis 0 0 0   XYZ 
    dof ry rz
    limits (-10.0 20.0)
           (-20.0 0.0)
  end
  begin
     id 25 
     name rhumerus
     direction -1 -4.48962e-011 3.59972e-027  
     length 5.352   
     axis 180 30 90   XYZ
    dof rx ry rz
    limits (-90.0 60.0)
           (-90.0 90.0)
           (-90.0 90.0)
  end
  begin
     id 26 
     name rradius
     direction -1 -4.48987e-011 -3.76925e-027   
     length 3.43721   
     axis 180 30 90   XYZ
    dof rx
    limits (-10.0 170.0)
  end
  begin
     id 27 
     name rwrist
     direction -1 -4.48943e-011 1.28112e-027   
     length 1.7186   
     axis -1.61767e-015 -90 -90   XYZ
    dof ry
    limits (-180.0 0.0)
  end
  begin
     id 28
     name rhand
     direction -1 -4.49027e-011 2.55483e-027   
     length 0.72009   
     axis -1.63363e-015 -90 -90   XYZ
    dof rx rz
    limits (-90.0 90.0)
           (-45.0 45.0)
  end
  begin
     id 29
     name rfingers
     direction -1 -4.48827e-011 5.14506e-027   
     length 0.580555   
     axis -3.26723e-015 -90 -90   XYZ
    dof rx
    limits (0.0 90.0)
  end
  begin
     id 30
     name rthumb
     direction -0.707107 -6.34936e-011 0.707107   
     length 0.833564   
     axis -90 -45 2.25915e-014   XYZ
    dof rx rz
    limits (-45.0 45.0)
           (-45.0 45.0)
  end
:hierarchy
  begin
    root lhipjoint rhipjoint lowerback
    lhipjoint lfemur
    lfemur ltibia
    ltibia lfoot
    lfoot ltoes
    rhipjoint rfemur
    rfemur rtibia
    rtibia rfoot
    rfoot rtoes
    lowerback upperback
    upperback thorax
    thorax lowerneck lclavicle rclavicle
    lowerneck upperneck
    upperneck head
    lclavicle lhumerus
    lhumerus lradius
    lradius lwrist
    lwrist lhand lthumb
    lhand lfingers
    rclavicle rhumerus
    rhumerus rradius
    rradius rwrist
    rwrist rhand rthumb
    rhand rfingers
  end

#!OML:ASF H:\Terrain\Patient Classification 1\Terrain2\Thursday\justin.ASF
:FULLY-SPECIFIED
:DEGREES
918
root 30.8406 17.9929 21.5287 471.43 -85.4069 249.581
lowerback 6.33092 0.348246 2.21986
upperback 2.66084 0.516983 3.89956
thorax -0.820803 0.198717 2.73648
lowerneck -14.7654 -1.73058 -9.1213
upperneck 36.0324 -2.38343 3.42489
head 15.2278 -2.23447 2.52989
rclavicle 1.2921e-015 -2.3059e-014
rhumerus -37.2302 -18.268 -74.2045
rradius 23.6515
rwrist -6.54636
rhand -20.6067 12.2875
rfingers 7.12502
rthumb 5.7541 -17.6144
lclavicle 1.2921e-015 -2.3059e-014
lhumerus -28.6004 5.56595 78.1467
lradius 37.5888
lwrist 0.953255
lhand -18.4367 18.7447
lfingers 7.12502
lthumb 7.84883 48.579
rfemur -12.0079 -0.0782283 28.5619
rtibia 32.1873
rfoot -18.367 1.29936
rtoes 41.6074
lfemur -8.41417 2.53012 -13.042
ltibia 40.5101
lfoot -13.0401 -6.4358
ltoes 3.44158
919
root 30.8228 17.9963 21.5096 471.114 -85.0579 249.879
lowerback 6.49872 0.398561 2.72265
upperback 2.66883 0.616999 3.89659
thorax -0.902637 0.24915 2.44332
lowerneck -14.7492 -1.76024 -9.01766
upperneck 36.1195 -2.48856 3.46181
head 15.2729 -2.26441 2.51044
rclavicle 2.98177e-016 -2.54444e-014
rhumerus -36.9939 -18.3657 -74.4175
rradius 23.5152
rwrist -6.67911
rhand -20.5979 12.4789
rfingers 7.12502
rthumb 5.76257 -17.4228
lclavicle 2.98177e-016 -2.54444e-014
lhumerus -28.513 5.34743 78.4793
lradius 37.5162
lwrist 0.00937859
lhand -18.5965 18.8058
lfingers 7.12502
lthumb 7.69465 48.6458
rfemur -11.6544 -0.477314 29.0716
rtibia 31.6953
rfoot -18.235 0.855675
rtoes 39.8201
lfemur -10.0049 2.82897 -12.4142
ltibia 43.3505
lfoot -11.2957 -7.121
ltoes 2.59854
920
root 30.7994 17.9951 21.4865 469.905 -84.832 251.061
lowerback 6.58725 0.271812 2.94243
upperback 2.66269 0.462669 3.99355
thorax -0.952951 0.170114 2.43154
lowerneck -14.8166 -1.65165 -9.27057
upperneck 36.3823 -2.35134 3.67832
head 15.4116 -2.2277 2.67423
rclavicle 4.47266e-015 0
rhumerus -36.7592 -18.1109 -74.6397
rradius 23.3634
rwrist -6.45982
rhand -20.6584 12.574
rfingers 7.12502
rthumb 5.70415 -17.3292
lclavicle 4.47266e-015 0
lhumerus -28.7963 5.50191 78.776
lradius 37.6084
lwrist -0.739658
lhand -18.888 18.4228
lfingers 7.12502
lthumb 7.4133 48.2729
rfemur -11.2219 -0.740197 29.5056
rtibia 31.1229
rfoot -18.1119 0.381065
rtoes 38.358
lfemur -11.7333 3.11456 -11.8223
ltibia 46.3802
lfoot -9.06247 -8.02102
ltoes 1.88761
921
root 30.7757 17.999 21.4651 468.98 -84.7178 251.999
lowerback 6.62299 0.172591 3.03794
upperback 2.67475 0.334409 4.09372
thorax -0.95723 0.103947 2.49135
lowerneck -14.9573 -1.56537 -9.36884
upperneck 36.6027 -2.17868 3.63329
head 15.5397 -2.18611 2.70497
rclavicle 5.46658e-015 1.90833e-014
rhumerus -36.5474 -17.7122 -74.9076
rradius 23.4247
rwrist -6.27843
rhand -20.1282 12.189
rfingers 7.12502
rthumb 6.21604 -17.6998
lclavicle 5.46658e-015 1.90833e-014
lhumerus -29.0576 5.37992 79.2236
lradius 37.7673
lwrist -1.0293
lhand -19.1373 18.0262
lfingers 7.12502
lthumb 7.17265 47.8846
rfemur -10.8058 -0.854539 29.8106
rtibia 30.5202
rfoot -18.0464 -0.0306464
rtoes 37.3272
lfemur -13.6563 3.35359 -11.3563
ltibia 49.456
lfoot -6.18519 -8.67726
ltoes 5.57047
922
root 30.7559 18.0006 21.4468 467.038 -84.2874 253.863
lowerback 6.84357 0.149 3.59316
upperback 2.69954 0.341498 4.20399
thorax -1.04993 0.104717 2.29424
lowerneck -14.9863 -1.53636 -9.20113
upperneck 36.6515 -2.13872 3.49899
head 15.5624 -2.1662 2.6251
rclavicle 1.49089e-015 -1.27222e-014
rhumerus -36.4518 -17.4961 -75.1862
rradius 23.7746
rwrist -6.56548
rhand -19.2118 11.7336
rfingers 7.12502
rthumb 7.10066 -18.1273
lclavicle 1.49089e-015 -1.27222e-014
lhumerus -29.188 5.21022 79.6758
lradius 37.8722
lwrist -1.30157
lhand -19.4621 18.0378
lfingers 7.12502
lthumb 6.85912 47.9067
rfemur -10.2862 -1.50968 30.4216
rtibia 29.8339
rfoot -17.9945 0.06253
rtoes 36.8979
lfemur -15.6324 3.56924 -10.5368
ltibia 52.5331
lfoot -2.85304 -8.75966
ltoes 10.652
923
root 30.7372 18.0085 21.4273 465.018 -83.7564 255.846
lowerback 7.09058 0.195591 4.34483
upperback 2.70421 0.461074 4.2508
thorax -1.17578 0.162297 1.91304
lowerneck -15.0519 -1.58966 -9.19096
upperneck 36.678 -2.289 3.70193
head 15.6056 -2.19832 2.68594
rclavicle -8.94531e-016 6.36111e-015
rhumerus -36.4899 -17.6101 -75.4517
rradius 24.1913
rwrist -6.70954
rhand -19.4946 11.6416
rfingers 7.12502
rthumb 6.82772 -18.2283
lclavicle -8.94531e-016 6.36111e-015
lhumerus -29.1604 5.03047 80.0504
lradius 37.8667
lwrist -1.77002
lhand -19.3024 18.2307
lfingers 7.12502
lthumb 7.01324 48.0945
rfemur -9.76786 -2.24887 31.1433
rtibia 29.0461
rfoot -17.8952 0.262505
rtoes 36.8373
lfemur -17.8041 3.78318 -9.57365
ltibia 55.6101
lfoot 0.127683 -9.15681
ltoes 7.51832
924
root 30.7177 18.0189 21.4104 463.389 -83.3177 257.459
lowerback 7.28696 0.277257 5.02791
upperback 2.75315 0.619517 4.27299
thorax -1.22459 0.23977 1.54183
lowerneck -15.2048 -1.6933 -9.22991
upperneck 36.6622 -2.47419 3.89452
head 15.6543 -2.24777 2.74474
rclavicle -4.27387e-015 -1.59028e-015
rhumerus -36.4397 -17.8854 -75.6412
rradius 24.4639
rwrist -6.57023
rhand -19.8737 11.6397
rfingers 7.12502
rthumb 6.46171 -18.2417
lclavicle -4.27387e-015 -1.59028e-015
lhumerus -28.9603 4.69528 80.4662
lradius 37.7755
lwrist -2.03757
lhand -18.9621 18.3708
lfingers 7.12502
lthumb 7.34169 48.2234
rfemur -9.22827 -2.85665 31.7479
rtibia 28.1559
rfoot -17.4098 0.214082
rtoes 34.1005
lfemur -20.117 3.88571 -8.77498
ltibia 58.677
lfoot 2.70209 -10.1485
ltoes 4.06993
925
root 30.6928 18.0264 21.4002 462.482 -82.9331 258.203
lowerback 7.5489 0.267864 5.61777
upperback 2.83995 0.652865 4.37969
thorax -1.27116 0.252308 1.32091
lowerneck -15.2642 -1.71643 -9.27979
upperneck 36.6176 -2.44064 3.80462
head 15.6445 -2.24791 2.72015
rclavicle 1.64991e-014 6.59965e-014
rhumerus -36.2477 -17.2396 -76.0169
rradius 24.769
rwrist -6.67562
rhand -19.6343 11.4717
rfingers 7.12502
rthumb 6.69287 -18.4025
lclavicle 1.64991e-014 6.59965e-014
lhumerus -28.991 4.46119 80.9799
lradius 37.8297
lwrist -1.74443
lhand -19.2614 18.4982
lfingers 7.12502
lthumb 7.05283 48.3607
rfemur -8.50249 -3.73559 32.1881
rtibia 27.1986
rfoot -16.7419 0.560635
rtoes 30.7952
lfemur -22.2137 3.96677 -8.16946
ltibia 61.7929
lfoot 4.67304 -10.7322
ltoes 7.58581
926
root 30.6661 18.0324 21.3878 462.047 -82.4637 258.349
lowerback 7.9369 0.161037 6.12734
upperback 2.91011 0.56486 4.57016
thorax -1.40869 0.199933 1.24279
lowerneck -15.177 -1.63468 -9.16799
upperneck 36.5115 -2.23245 3.47769
head 15.5472 -2.1869 2.59347
rclavicle -3.27995e-015 -7.15625e-015
rhumerus -36.0941 -15.8525 -76.5962
rradius 25.1909
rwrist -7.22132
rhand -19.3111 11.5848
rfingers 7.12502
rthumb 7.00487 -18.2793
lclavicle -3.27995e-015 -7.15625e-015
lhumerus -29.308 4.80153 81.3747
lradius 38.0107
lwrist -1.56632
lhand -19.3536 18.4683
lfingers 7.12502
lthumb 6.96382 48.3337
rfemur -7.59986 -4.37957 32.7069
rtibia 26.2346
rfoot -16.3051 0.814622
rtoes 28.9038
lfemur -24.0504 4.25879 -7.45422
ltibia 65.0615
lfoot 5.24689 -10.7421
ltoes 12.8468
927
root 30.6464 18.0337 21.371 461.473 -81.9013 258.59
lowerback 8.44021 0.0332891 6.58723
upperback 3.00519 0.456493 4.81118
thorax -1.58585 0.134212 1.24896
lowerneck -15.1648 -1.5694 -9.10883
upperneck 36.3422 -2.05103 3.24749
head 15.4427 -2.12596 2.51305
rclavicle 5.36719e-015 3.89618e-014
rhumerus -35.8578 -14.6926 -77.0601
rradius 25.4973
rwrist -7.80464
rhand -19.4999 11.8556
rfingers 7.12502
rthumb 6.82264 -18.0145
lclavicle 5.36719e-015 3.89618e-014
lhumerus -29.5797 5.56857 81.6626
lradius 38.1084
lwrist -1.85842
lhand -19.1411 18.3553
lfingers 7.12502
lthumb 7.16896 48.2139
rfemur -6.61555 -4.75305 33.3745
rtibia 25.2069
rfoot -15.9553 0.752621
rtoes 26.4097
lfemur -25.8482 4.72465 -6.56439
ltibia 68.527
lfoot 4.18929 -10.7706
ltoes 14.7319
